<mxfile host="app.diagrams.net" agent="Mozilla/5.0 (Windows NT 10.0; Win64; x64) AppleWebKit/537.36 (KHTML, like Gecko) Chrome/126.0.0.0 Safari/537.36" version="24.7.6">
  <diagram name="Page-1" id="q9xOID4kt8JW5eHmldJV">
    <mxGraphModel dx="795" dy="493" grid="1" gridSize="10" guides="1" tooltips="1" connect="1" arrows="1" fold="1" page="1" pageScale="1" pageWidth="850" pageHeight="1100" math="0" shadow="0">
      <root>
        <mxCell id="0" />
        <mxCell id="1" parent="0" />
        <mxCell id="sZ29ETevS_yADoRJkJYO-1" value="FLOWMAP PEMESANAN MAKANAN" style="swimlane;childLayout=stackLayout;resizeParent=1;resizeParentMax=0;startSize=20;html=1;" parent="1" vertex="1">
          <mxGeometry x="210.00000000000045" y="70" width="240" height="480" as="geometry" />
        </mxCell>
        <mxCell id="sZ29ETevS_yADoRJkJYO-2" value="PEMBELI" style="swimlane;startSize=20;html=1;" parent="sZ29ETevS_yADoRJkJYO-1" vertex="1">
          <mxGeometry y="20" width="120" height="460" as="geometry" />
        </mxCell>
        <mxCell id="EwI7IZDlPY8THwW3k44Y-8" value="" style="endArrow=classic;html=1;rounded=0;" edge="1" parent="sZ29ETevS_yADoRJkJYO-2">
          <mxGeometry width="50" height="50" relative="1" as="geometry">
            <mxPoint x="59.999999999999545" y="140" as="sourcePoint" />
            <mxPoint x="59.999999999999545" y="180" as="targetPoint" />
          </mxGeometry>
        </mxCell>
        <mxCell id="EwI7IZDlPY8THwW3k44Y-16" value="&lt;font style=&quot;font-size: 8px;&quot;&gt;pembeli&amp;nbsp;&lt;/font&gt;&lt;div style=&quot;font-size: 8px;&quot;&gt;&lt;font style=&quot;font-size: 8px;&quot;&gt;membayar&amp;nbsp;&lt;/font&gt;&lt;/div&gt;&lt;div style=&quot;font-size: 8px;&quot;&gt;&lt;font style=&quot;font-size: 8px;&quot;&gt;pesanan&lt;/font&gt;&lt;/div&gt;" style="verticalLabelPosition=middle;verticalAlign=middle;html=1;shape=trapezoid;perimeter=trapezoidPerimeter;whiteSpace=wrap;size=0.23;arcSize=10;flipV=1;labelPosition=center;align=center;" vertex="1" parent="sZ29ETevS_yADoRJkJYO-2">
          <mxGeometry x="18.329999999999558" y="280" width="83.33" height="50" as="geometry" />
        </mxCell>
        <mxCell id="EwI7IZDlPY8THwW3k44Y-17" value="" style="endArrow=classic;html=1;rounded=0;" edge="1" parent="sZ29ETevS_yADoRJkJYO-2">
          <mxGeometry width="50" height="50" relative="1" as="geometry">
            <mxPoint x="59.999999999999545" y="330" as="sourcePoint" />
            <mxPoint x="59.999999999999545" y="380" as="targetPoint" />
          </mxGeometry>
        </mxCell>
        <mxCell id="EwI7IZDlPY8THwW3k44Y-18" value="selesai" style="ellipse;whiteSpace=wrap;html=1;align=center;" vertex="1" parent="sZ29ETevS_yADoRJkJYO-2">
          <mxGeometry x="9.999999999999545" y="380" width="100" height="40" as="geometry" />
        </mxCell>
        <mxCell id="EwI7IZDlPY8THwW3k44Y-21" value="&lt;font style=&quot;font-size: 8px;&quot;&gt;pembeli&lt;/font&gt;&lt;div style=&quot;font-size: 8px;&quot;&gt;&lt;font style=&quot;font-size: 8px;&quot;&gt;mengajukan&amp;nbsp;&lt;/font&gt;&lt;/div&gt;&lt;div style=&quot;font-size: 8px;&quot;&gt;&lt;font style=&quot;font-size: 8px;&quot;&gt;pesanan menu&lt;/font&gt;&lt;/div&gt;" style="strokeWidth=2;html=1;shape=mxgraph.flowchart.document2;whiteSpace=wrap;size=0.25;" vertex="1" parent="sZ29ETevS_yADoRJkJYO-2">
          <mxGeometry x="18.34" y="180" width="83.33" height="50" as="geometry" />
        </mxCell>
        <mxCell id="EwI7IZDlPY8THwW3k44Y-22" value="&lt;font style=&quot;font-size: 8px;&quot;&gt;pembeli memilih&lt;/font&gt;&lt;div style=&quot;font-size: 8px;&quot;&gt;&lt;font style=&quot;font-size: 8px;&quot;&gt;menu pesanan&lt;/font&gt;&lt;/div&gt;" style="strokeWidth=2;html=1;shape=mxgraph.flowchart.document2;whiteSpace=wrap;size=0.25;" vertex="1" parent="sZ29ETevS_yADoRJkJYO-2">
          <mxGeometry x="18.33" y="100" width="75" height="45" as="geometry" />
        </mxCell>
        <mxCell id="sZ29ETevS_yADoRJkJYO-3" value="PENJUAL" style="swimlane;startSize=20;html=1;" parent="sZ29ETevS_yADoRJkJYO-1" vertex="1">
          <mxGeometry x="120" y="20" width="120" height="460" as="geometry" />
        </mxCell>
        <mxCell id="EwI7IZDlPY8THwW3k44Y-1" value="mulai" style="ellipse;whiteSpace=wrap;html=1;align=center;" vertex="1" parent="sZ29ETevS_yADoRJkJYO-3">
          <mxGeometry x="35" y="30" width="50" height="20" as="geometry" />
        </mxCell>
        <mxCell id="EwI7IZDlPY8THwW3k44Y-2" value="" style="endArrow=classic;html=1;rounded=0;" edge="1" parent="sZ29ETevS_yADoRJkJYO-3">
          <mxGeometry width="50" height="50" relative="1" as="geometry">
            <mxPoint x="59.57999999999953" y="50" as="sourcePoint" />
            <mxPoint x="59.999999999999545" y="90" as="targetPoint" />
          </mxGeometry>
        </mxCell>
        <mxCell id="EwI7IZDlPY8THwW3k44Y-5" value="&lt;font style=&quot;font-size: 8px;&quot;&gt;penjual memberikan menu&lt;/font&gt;" style="strokeWidth=2;html=1;shape=mxgraph.flowchart.document2;whiteSpace=wrap;size=0.25;" vertex="1" parent="sZ29ETevS_yADoRJkJYO-3">
          <mxGeometry x="18.33999999999952" y="90" width="83.33" height="50" as="geometry" />
        </mxCell>
        <mxCell id="EwI7IZDlPY8THwW3k44Y-6" value="" style="endArrow=classic;html=1;rounded=0;" edge="1" parent="sZ29ETevS_yADoRJkJYO-3">
          <mxGeometry width="50" height="50" relative="1" as="geometry">
            <mxPoint x="18.33999999999952" y="120" as="sourcePoint" />
            <mxPoint x="-30.000000000000455" y="120" as="targetPoint" />
          </mxGeometry>
        </mxCell>
        <mxCell id="EwI7IZDlPY8THwW3k44Y-11" value="&lt;div style=&quot;&quot;&gt;&lt;span style=&quot;font-size: 6px;&quot;&gt;penjual mencatat&amp;nbsp;&lt;/span&gt;&lt;/div&gt;&lt;div style=&quot;&quot;&gt;&lt;span style=&quot;font-size: 6px;&quot;&gt;menu yang dipilih&lt;/span&gt;&lt;/div&gt;" style="verticalLabelPosition=middle;verticalAlign=middle;html=1;shape=trapezoid;perimeter=trapezoidPerimeter;whiteSpace=wrap;size=0.23;arcSize=10;flipV=1;labelPosition=center;align=center;" vertex="1" parent="sZ29ETevS_yADoRJkJYO-3">
          <mxGeometry x="18.34" y="180" width="91.66" height="50" as="geometry" />
        </mxCell>
        <mxCell id="EwI7IZDlPY8THwW3k44Y-10" value="" style="endArrow=classic;html=1;rounded=0;" edge="1" parent="sZ29ETevS_yADoRJkJYO-3">
          <mxGeometry width="50" height="50" relative="1" as="geometry">
            <mxPoint x="-35.000000000000455" y="220.18" as="sourcePoint" />
            <mxPoint x="34.999999999999545" y="220" as="targetPoint" />
          </mxGeometry>
        </mxCell>
        <mxCell id="EwI7IZDlPY8THwW3k44Y-13" value="" style="endArrow=classic;html=1;rounded=0;" edge="1" parent="sZ29ETevS_yADoRJkJYO-3">
          <mxGeometry width="50" height="50" relative="1" as="geometry">
            <mxPoint x="59.999999999999545" y="230" as="sourcePoint" />
            <mxPoint x="59.999999999999545" y="280" as="targetPoint" />
          </mxGeometry>
        </mxCell>
        <mxCell id="EwI7IZDlPY8THwW3k44Y-19" value="&lt;font style=&quot;font-size: 8px;&quot;&gt;penjual&amp;nbsp;&lt;/font&gt;&lt;div style=&quot;font-size: 8px;&quot;&gt;&lt;font style=&quot;font-size: 8px;&quot;&gt;menghitung&lt;/font&gt;&lt;/div&gt;&lt;div style=&quot;font-size: 8px;&quot;&gt;&lt;font style=&quot;font-size: 8px;&quot;&gt;pesanan&lt;/font&gt;&lt;/div&gt;" style="verticalLabelPosition=middle;verticalAlign=middle;html=1;shape=trapezoid;perimeter=trapezoidPerimeter;whiteSpace=wrap;size=0.23;arcSize=10;flipV=1;labelPosition=center;align=center;" vertex="1" parent="sZ29ETevS_yADoRJkJYO-3">
          <mxGeometry x="18.339999999999577" y="280" width="83.33" height="50" as="geometry" />
        </mxCell>
        <mxCell id="EwI7IZDlPY8THwW3k44Y-20" value="" style="endArrow=classic;html=1;rounded=0;" edge="1" parent="sZ29ETevS_yADoRJkJYO-3" target="EwI7IZDlPY8THwW3k44Y-16">
          <mxGeometry width="50" height="50" relative="1" as="geometry">
            <mxPoint x="29.999999999999545" y="310" as="sourcePoint" />
            <mxPoint x="79.99999999999955" y="260" as="targetPoint" />
          </mxGeometry>
        </mxCell>
      </root>
    </mxGraphModel>
  </diagram>
</mxfile>
